<svg width="28" height="28" viewBox="0 0 28 28" fill="none" xmlns="http://www.w3.org/2000/svg">
<rect width="28" height="28" fill="#1E1E1E"/>
<g id="BTRC User Registration From &#62; With  Responsive">
<path d="M-252 -118C-252 -119.105 -251.105 -120 -250 -120H1284C1285.1 -120 1286 -119.105 1286 -118V936C1286 937.105 1285.1 938 1284 938H-250C-251.105 938 -252 937.105 -252 936V-118Z" fill="#E1E1E1"/>
<path d="M-250 -119H1284V-121H-250V-119ZM1285 -118V936H1287V-118H1285ZM1284 937H-250V939H1284V937ZM-251 936V-118H-253V936H-251ZM-250 937C-250.552 937 -251 936.552 -251 936H-253C-253 937.657 -251.657 939 -250 939V937ZM1285 936C1285 936.552 1284.55 937 1284 937V939C1285.66 939 1287 937.657 1287 936H1285ZM1284 -119C1284.55 -119 1285 -118.552 1285 -118H1287C1287 -119.657 1285.66 -121 1284 -121V-119ZM-250 -121C-251.657 -121 -253 -119.657 -253 -118H-251C-251 -118.552 -250.552 -119 -250 -119V-121Z" fill="white" fill-opacity="0.1"/>
<g id="BTRC User Registration From">
<rect width="595" height="680" transform="translate(-35 -20)" fill="white"/>
<g id="header">
<g id="Group 1000005514">
<g id="Logo" clip-path="url(#clip0_20875_363290)">
<g id="Logo_2" clip-path="url(#clip1_20875_363290)">
<path id="Vector" fill-rule="evenodd" clip-rule="evenodd" d="M17.889 8.17971C16.7378 7.41055 15.3845 7 14 7V0C16.7689 0 19.4757 0.821086 21.778 2.35943C24.0803 3.89776 25.8747 6.08427 26.9343 8.64241C27.9939 11.2006 28.2712 14.0155 27.731 16.7313C27.1908 19.447 25.8574 21.9416 23.8995 23.8995C21.9416 25.8574 19.447 27.1908 16.7313 27.731C14.0155 28.2712 11.2006 27.9939 8.64241 26.9343C6.08427 25.8747 3.89776 24.0803 2.35943 21.778C0.821086 19.4757 0 16.7689 0 14H7C7 15.3845 7.41055 16.7378 8.17971 17.889C8.94887 19.0401 10.0421 19.9373 11.3212 20.4672C12.6003 20.997 14.0078 21.1356 15.3656 20.8655C16.7235 20.5954 17.9708 19.9287 18.9498 18.9498C19.9287 17.9708 20.5954 16.7235 20.8655 15.3656C21.1356 14.0078 20.997 12.6003 20.4672 11.3212C19.9373 10.0421 19.0401 8.94887 17.889 8.17971Z" fill="#2270E4"/>
<path id="Vector_2" fill-rule="evenodd" clip-rule="evenodd" d="M7 3.03188e-06C7 0.919257 6.81894 1.82951 6.46716 2.67878C6.11537 3.52807 5.59976 4.29974 4.94975 4.94975C4.29974 5.59977 3.52807 6.11538 2.67878 6.46716C1.8295 6.81894 0.91925 7 3.05977e-07 7L0 14C1.8385 14 3.65901 13.6379 5.35757 12.9343C7.05614 12.2308 8.5995 11.1995 9.89947 9.89947C11.1995 8.5995 12.2307 7.05614 12.9343 5.35757C13.6379 3.65901 14 1.8385 14 0L7 3.03188e-06Z" fill="#2270E4"/>
</g>
</g>
</g>
</g>
</g>
</g>
<defs>
<clipPath id="clip0_20875_363290">
<rect width="104" height="28" fill="white"/>
</clipPath>
<clipPath id="clip1_20875_363290">
<rect width="28" height="28" fill="white"/>
</clipPath>
</defs>
</svg>
